<?xml version="1.0" encoding="utf-8" ?>
<svg xmlns="http://www.w3.org/2000/svg" xmlns:xlink="http://www.w3.org/1999/xlink" width="57" height="73">
	<defs>
		<clipPath id="clip_0">
			<rect x="-153" y="-643" width="1441" height="3982" clip-rule="evenodd"/>
		</clipPath>
	</defs>
	<g clip-path="url(#clip_0)">
		<path fill="rgb(41,170,225)" stroke="none" d="M42.0549 17.7307C34.9298 12.4157 30.7592 4.35751 29.0213 0.757046C28.8002 0.538923 28.7206 0.338497 28.7304 0.166057C28.4555 -0.0421889 28.1964 -0.0271672 27.9864 0.0623454C27.9835 0.0654321 27.9816 0.0685187 27.9787 0.0713996C26.7623 3.67187 22.0702 11.9015 14.9451 17.7307C5.90847 24.7602 0 33.5041 0 44.1341C0 57.6787 10.6005 72.9376 28.4999 72.9376C46.2257 72.9376 57 57.6787 57 44.1341C57 33.5041 51.6128 24.7602 42.0549 17.7307"/>
	</g>
	<defs>
		<clipPath id="clip_1">
			<rect x="-153" y="-643" width="1441" height="3982" clip-rule="evenodd"/>
		</clipPath>
	</defs>
	<g clip-path="url(#clip_1)">
		<path fill="rgb(255,255,255)" stroke="none" transform="translate(12 32)" d="M27.3422 8.44207C26.7998 11.9462 23.7703 14.6286 20.1143 14.6286C17.5936 14.6286 15.3707 13.3535 14.0555 11.4131Q14.3648 11.113 14.6157 10.7609Q14.8667 10.4089 15.0528 10.014Q15.239 9.61914 15.3557 9.19147Q15.4723 8.76381 15.5164 8.31429L26.0571 8.31429Q26.7138 8.31429 27.3422 8.44207L27.3422 8.44207ZM13.6919 3.81117C14.9332 1.54026 17.3439 0 20.1143 0C24.1539 0 27.4286 3.27472 27.4286 7.31429C27.4286 7.69783 27.399 8.07447 27.3422 8.44207Q27.5944 8.49337 27.8393 8.56487Q28.0843 8.63638 28.3204 8.72765Q28.5566 8.81893 28.7825 8.92942Q29.0084 9.03991 29.2227 9.16893Q29.4371 9.29796 29.6384 9.44474Q29.8398 9.59152 30.0271 9.75515Q30.2143 9.91878 30.3862 10.0983Q30.5582 10.2777 30.7137 10.472Q30.8693 10.6662 31.0076 10.874Q31.1459 11.0818 31.266 11.3019Q31.3862 11.522 31.4874 11.7531Q31.5887 11.9842 31.6704 12.2247Q31.7522 12.4653 31.814 12.714Q31.8757 12.9627 31.9171 13.2179Q31.9585 13.4731 31.9792 13.7333Q32 13.9935 32 14.2571Q32 14.4094 31.9931 14.5606Q31.9861 14.7118 31.9723 14.8616Q31.9585 15.0115 31.9377 15.1597Q31.917 15.308 31.8894 15.4543Q31.8619 15.6006 31.8275 15.7446Q31.7932 15.8887 31.7521 16.0302Q31.711 16.1717 31.6633 16.3104Q31.6156 16.4491 31.5613 16.5848Q31.5071 16.7204 31.4464 16.8526Q31.3858 16.9848 31.3188 17.1134Q31.2518 17.242 31.1787 17.3667Q31.1056 17.4913 31.0264 17.6118Q30.9473 17.7323 30.8623 17.8484Q30.7773 17.9645 30.6866 18.076Q30.5959 18.1874 30.4997 18.294Q30.4035 18.4006 30.302 18.502Q30.2006 18.6035 30.094 18.6997Q29.9874 18.7959 29.876 18.8866Q29.7645 18.9773 29.6484 19.0623Q29.5323 19.1473 29.4118 19.2264Q29.2913 19.3056 29.1667 19.3787Q29.042 19.4518 28.9134 19.5188Q28.7848 19.5858 28.6526 19.6464Q28.5204 19.7071 28.3848 19.7613Q28.2492 19.8156 28.1104 19.8633Q27.9717 19.911 27.8302 19.9521Q27.6887 19.9932 27.5446 20.0275Q27.4006 20.0619 27.2543 20.0894Q27.108 20.117 26.9597 20.1377Q26.8115 20.1585 26.6616 20.1723Q26.5118 20.1861 26.3606 20.1931Q26.2094 20.2 26.0571 20.2L5.94286 20.2Q5.79064 20.2 5.63944 20.1931Q5.48824 20.1861 5.33837 20.1723Q5.18851 20.1585 5.04027 20.1377Q4.89204 20.117 4.74574 20.0894Q4.59945 20.0619 4.45539 20.0275Q4.31133 19.9932 4.1698 19.9521Q4.02827 19.911 3.88956 19.8633Q3.75085 19.8156 3.61525 19.7613Q3.47964 19.7071 3.34741 19.6464Q3.21518 19.5858 3.0866 19.5188Q2.95802 19.4518 2.83335 19.3787Q2.70868 19.3056 2.58817 19.2264Q2.46767 19.1473 2.35157 19.0623Q2.23548 18.9773 2.12403 18.8866Q2.01258 18.7959 1.90601 18.6997Q1.79944 18.6035 1.69796 18.502Q1.59648 18.4006 1.5003 18.294Q1.40412 18.1874 1.31343 18.076Q1.22275 17.9645 1.13775 17.8484Q1.05274 17.7323 0.973593 17.6118Q0.894443 17.4913 0.821308 17.3667Q0.748174 17.242 0.681205 17.1134Q0.614235 16.9848 0.553567 16.8526Q0.492898 16.7204 0.438655 16.5848Q0.384412 16.4491 0.336705 16.3104Q0.288997 16.1717 0.247923 16.0302Q0.206849 15.8887 0.172492 15.7446Q0.138134 15.6006 0.110564 15.4543Q0.0829934 15.308 0.0622662 15.1597Q0.0415391 15.0115 0.0276974 14.8616Q0.0138558 14.7118 0.00692789 14.5606Q0 14.4094 0 14.2571Q0 13.9661 0.0253 13.6792Q0.0506 13.3924 0.101011 13.1119Q0.151423 12.8315 0.22657 12.5595Q0.301718 12.2875 0.401041 12.026Q0.500365 11.7645 0.623124 11.5155Q0.745884 11.2664 0.891165 11.0317Q1.03645 10.797 1.20317 10.5783Q1.36989 10.3596 1.5568 10.1586Q1.74372 9.95762 1.94944 9.77579Q2.15516 9.59397 2.37816 9.43268Q2.60115 9.27139 2.83976 9.13184Q3.07836 8.99228 3.3308 8.8755Q3.58323 8.75872 3.84762 8.66559Q4.11201 8.57245 4.38638 8.50366Q4.66076 8.43486 4.94307 8.39091Q5.22538 8.34696 5.51352 8.3282Q5.48571 8.05223 5.48571 7.77143Q5.48571 7.64263 5.49158 7.51469Q5.49744 7.38675 5.50915 7.25994Q5.52086 7.13313 5.5384 7.0077Q5.55594 6.88228 5.57927 6.75849Q5.6026 6.6347 5.63167 6.5128Q5.66074 6.39091 5.6955 6.27115Q5.73025 6.1514 5.77062 6.03403Q5.81099 5.91666 5.85688 5.80191Q5.90278 5.68717 5.95412 5.57528Q6.00545 5.46339 6.06212 5.3546Q6.11879 5.2458 6.18067 5.14031Q6.24255 5.03482 6.30952 4.93285Q6.3765 4.83088 6.44842 4.73265Q6.52035 4.63442 6.59708 4.54011Q6.67382 4.44581 6.7552 4.35564Q6.83658 4.26546 6.92245 4.17959Q7.00832 4.09372 7.09849 4.01234Q7.18867 3.93096 7.28297 3.85423Q7.37727 3.77749 7.47551 3.70557Q7.57374 3.63364 7.67571 3.56667Q7.77767 3.49969 7.88316 3.43781Q7.98865 3.37593 8.09745 3.31926Q8.20625 3.26259 8.31814 3.21126Q8.43003 3.15993 8.54477 3.11403Q8.65952 3.06813 8.77689 3.02776Q8.89426 2.98739 9.01401 2.95264Q9.13377 2.91788 9.25566 2.88881Q9.37756 2.85974 9.50134 2.83641Q9.62513 2.81308 9.75056 2.79554Q9.87599 2.77801 10.0028 2.76629Q10.1296 2.75458 10.2575 2.74872Q10.3855 2.74286 10.5143 2.74286Q10.9568 2.74286 11.3854 2.81167Q11.814 2.88048 12.2184 3.01645Q12.6229 3.15242 12.9934 3.35229Q13.364 3.55217 13.6919 3.81117L13.6919 3.81117ZM13.6919 3.81117C13.1232 4.85148 12.8 6.04514 12.8 7.31429C12.8 7.65351 12.8231 7.98734 12.8678 8.31429L5.94286 8.31429Q5.7271 8.31429 5.51352 8.3282Q5.53731 8.56423 5.58126 8.7949Q5.62522 9.02558 5.68904 9.24927Q5.75286 9.47296 5.83608 9.68808Q5.91931 9.9032 6.02136 10.1082Q6.12341 10.3132 6.24355 10.5067Q6.36369 10.7002 6.50108 10.8808Q6.63847 11.0613 6.79213 11.2277Q6.94579 11.394 7.11464 11.545Q7.28349 11.696 7.46632 11.8305Q7.64915 11.9651 7.84468 12.0822Q8.0402 12.1994 8.24704 12.2983Q8.45387 12.3972 8.67055 12.4772Q8.88722 12.5572 9.11221 12.6177Q9.33719 12.6782 9.56889 12.7187Q9.80058 12.7593 10.0374 12.7796Q10.2741 12.8 10.5143 12.8Q11.0213 12.8 11.5091 12.7098Q11.9969 12.6197 12.4502 12.4421Q12.9034 12.2646 13.3079 12.0053Q13.7124 11.7461 14.0555 11.4131C13.44 10.5051 13.0232 9.45127 12.8678 8.31429L15.5164 8.31429Q15.5429 8.04514 15.5429 7.77143Q15.5429 7.47686 15.5123 7.18768Q15.4817 6.8985 15.4208 6.61779Q15.3599 6.33708 15.2695 6.06784Q15.179 5.79859 15.0598 5.54367Q14.9407 5.28875 14.7941 5.05087Q14.6476 4.813 14.4752 4.59469Q14.3029 4.37639 14.1065 4.17999Q13.9102 3.98358 13.6919 3.81117L13.6919 3.81117Z" fill-rule="evenodd"/>
	</g>
</svg>
