<?xml version="1.0" encoding="utf-8" ?>
<svg xmlns="http://www.w3.org/2000/svg" xmlns:xlink="http://www.w3.org/1999/xlink" width="57" height="73">
	<defs>
		<clipPath id="clip_0">
			<rect x="-539" y="-791" width="1441" height="3982" clip-rule="evenodd"/>
		</clipPath>
	</defs>
	<g clip-path="url(#clip_0)">
		<path fill="rgb(41,170,225)" stroke="none" d="M42.0549 17.7307C34.9298 12.4157 30.7592 4.35751 29.0213 0.757046C28.8002 0.538923 28.7206 0.338497 28.7304 0.166057C28.4555 -0.0421889 28.1964 -0.0271672 27.9864 0.0623454C27.9835 0.0654321 27.9816 0.0685187 27.9787 0.0713996C26.7623 3.67187 22.0702 11.9015 14.9451 17.7307C5.90847 24.7602 0 33.5041 0 44.1341C0 57.6787 10.6005 72.9376 28.4999 72.9376C46.2257 72.9376 57 57.6787 57 44.1341C57 33.5041 51.6128 24.7602 42.0549 17.7307"/>
	</g>
	<defs>
		<clipPath id="clip_1">
			<rect x="-539" y="-791" width="1441" height="3982" clip-rule="evenodd"/>
		</clipPath>
	</defs>
	<g clip-path="url(#clip_1)">
		<path fill="rgb(255,255,255)" stroke="none" transform="translate(14 30)" d="M6 12C7.72616 12 9.28206 11.2711 10.3767 10.1042L17.3592 14.1356C17.1275 14.7117 17 15.341 17 16C17 16.7308 17.1568 17.4249 17.4385 18.0507L11.902 21.2472C11.1732 20.479 10.1425 20 9 20C6.79086 20 5 21.7909 5 24C5 26.2091 6.79086 28 9 28C11.2091 28 13 26.2091 13 24C13 23.6533 12.9559 23.3168 12.873 22.996L18.6156 19.6805C19.5061 20.4997 20.6946 21 22 21C24.7614 21 27 18.7614 27 16C27 13.2386 24.7614 11 22 11C20.6193 11 19.3694 11.5596 18.4646 12.4644L11.4854 8.43492C11.8162 7.69079 12 6.86686 12 6C12 2.68629 9.31371 0 6 0C2.68629 0 0 2.68629 0 6C0 9.31371 2.68629 12 6 12ZM23.3668 16.116L23.7224 16.7321L18.6156 19.6805C18.1209 19.2253 17.7181 18.6717 17.4385 18.0507L20.7894 16.116L22.7224 17.2321L23.3668 16.116ZM23.3668 16.116L22.7224 15L20.7894 16.116L17.3592 14.1356C17.6129 13.5046 17.9916 12.9373 18.4646 12.4644L23.7224 15.5L23.3668 16.116ZM12.873 22.996C12.7008 22.3299 12.3613 21.7311 11.902 21.2472L8 23.5L9 25.232L12.873 22.996ZM11.4854 8.43492C11.2103 9.05357 10.8337 9.61707 10.3767 10.1042L8 8.73205L9 7L11.4854 8.43492Z" fill-rule="evenodd"/>
	</g>
</svg>
