<?xml version="1.0" encoding="utf-8" ?>
<svg xmlns="http://www.w3.org/2000/svg" xmlns:xlink="http://www.w3.org/1999/xlink" width="57" height="73">
	<defs>
		<clipPath id="clip_0">
			<rect x="-925" y="-642" width="1441" height="3982" clip-rule="evenodd"/>
		</clipPath>
	</defs>
	<g clip-path="url(#clip_0)">
		<path fill="rgb(41,170,225)" stroke="none" d="M42.0549 17.7307C34.9298 12.4157 30.7592 4.35751 29.0213 0.757046C28.8002 0.538923 28.7206 0.338497 28.7304 0.166057C28.4555 -0.0421889 28.1964 -0.0271672 27.9864 0.0623454C27.9835 0.0654321 27.9816 0.0685187 27.9787 0.0713996C26.7623 3.67187 22.0702 11.9015 14.9451 17.7307C5.90847 24.7602 0 33.5041 0 44.1341C0 57.6787 10.6005 72.9376 28.4999 72.9376C46.2257 72.9376 57 57.6787 57 44.1341C57 33.5041 51.6128 24.7602 42.0549 17.7307"/>
	</g>
	<defs>
		<clipPath id="clip_1">
			<rect x="-925" y="-642" width="1441" height="3982" clip-rule="evenodd"/>
		</clipPath>
	</defs>
	<g clip-path="url(#clip_1)">
		<path fill="rgb(255,255,255)" stroke="none" transform="translate(17 32)" d="M22 0L2 0Q1.89749 0 1.79657 0.00932124Q1.69564 0.0186425 1.59713 0.037209Q1.49861 0.0557754 1.4033 0.0834357Q1.30799 0.111096 1.21667 0.147624Q1.12535 0.184153 1.03876 0.229252Q0.95217 0.27435 0.871019 0.327651Q0.789868 0.380953 0.714818 0.442021Q0.639767 0.50309 0.571429 0.571429Q0.50309 0.639767 0.442021 0.714818Q0.380953 0.789868 0.327651 0.871019Q0.27435 0.95217 0.229252 1.03876Q0.184153 1.12535 0.147624 1.21667Q0.111096 1.30799 0.0834357 1.4033Q0.0557754 1.49861 0.037209 1.59713Q0.0186425 1.69564 0.00932124 1.79657Q0 1.89749 0 2L0 24Q0 24.1025 0.00932124 24.2034Q0.0186425 24.3044 0.037209 24.4029Q0.0557754 24.5014 0.0834357 24.5967Q0.111096 24.692 0.147624 24.7833Q0.184153 24.8747 0.229252 24.9612Q0.27435 25.0478 0.327651 25.129Q0.380953 25.2101 0.442021 25.2852Q0.50309 25.3602 0.571429 25.4286Q0.639767 25.4969 0.714818 25.558Q0.789868 25.619 0.871019 25.6723Q0.95217 25.7257 1.03876 25.7708Q1.12535 25.8158 1.21667 25.8524Q1.30799 25.8889 1.4033 25.9166Q1.49861 25.9442 1.59713 25.9628Q1.69564 25.9814 1.79657 25.9907Q1.89749 26 2 26L22 26Q22.1025 26 22.2034 25.9907Q22.3044 25.9814 22.4029 25.9628Q22.5014 25.9442 22.5967 25.9166Q22.692 25.8889 22.7833 25.8524Q22.8747 25.8158 22.9612 25.7708Q23.0478 25.7257 23.129 25.6723Q23.2101 25.619 23.2852 25.558Q23.3602 25.4969 23.4286 25.4286Q23.4969 25.3602 23.558 25.2852Q23.619 25.2101 23.6724 25.129Q23.7257 25.0478 23.7708 24.9612Q23.8159 24.8747 23.8524 24.7833Q23.8889 24.692 23.9166 24.5967Q23.9442 24.5014 23.9628 24.4029Q23.9814 24.3044 23.9907 24.2034Q24 24.1025 24 24L24 2Q24 1.89749 23.9907 1.79657Q23.9814 1.69564 23.9628 1.59713Q23.9442 1.49861 23.9166 1.4033Q23.8889 1.30799 23.8524 1.21667Q23.8159 1.12535 23.7708 1.03876Q23.7257 0.95217 23.6724 0.871019Q23.619 0.789868 23.558 0.714818Q23.4969 0.639767 23.4286 0.571429Q23.3602 0.50309 23.2852 0.442021Q23.2101 0.380953 23.129 0.327651Q23.0478 0.27435 22.9612 0.229252Q22.8747 0.184153 22.7833 0.147624Q22.692 0.111096 22.5967 0.0834357Q22.5014 0.0557754 22.4029 0.037209Q22.3044 0.0186425 22.2034 0.00932124Q22.1025 0 22 0ZM5 2L2 2L2 4L5 4L5 2ZM22 2L19 2L19 4L22 4L22 2ZM2 6L5 6L5 8L2 8L2 6ZM19 6L22 6L22 8L19 8L19 6ZM16 13L9 9L9 17L16 13ZM2 10L5 10L5 12L2 12L2 10ZM19 10L22 10L22 12L19 12L19 10ZM5 14L2 14L2 16L5 16L5 14ZM22 14L19 14L19 16L22 16L22 14ZM5 18L2 18L2 20L5 20L5 18ZM22 18L19 18L19 20L22 20L22 18ZM2 22L5 22L5 24L2 24L2 22ZM19 22L22 22L22 24L19 24L19 22Z" fill-rule="evenodd"/>
	</g>
</svg>
