<?xml version="1.0" encoding="utf-8" ?>
<svg xmlns="http://www.w3.org/2000/svg" xmlns:xlink="http://www.w3.org/1999/xlink" width="57" height="73">
	<defs>
		<clipPath id="clip_0">
			<rect x="-539" y="-642" width="1441" height="3982" clip-rule="evenodd"/>
		</clipPath>
	</defs>
	<g clip-path="url(#clip_0)">
		<path fill="rgb(41,170,225)" stroke="none" d="M42.0549 17.7307C34.9298 12.4157 30.7592 4.35751 29.0213 0.757046C28.8002 0.538923 28.7206 0.338497 28.7304 0.166057C28.4555 -0.0421889 28.1964 -0.0271672 27.9864 0.0623454C27.9835 0.0654321 27.9816 0.0685187 27.9787 0.0713996C26.7623 3.67187 22.0702 11.9015 14.9451 17.7307C5.90847 24.7602 0 33.5041 0 44.1341C0 57.6787 10.6005 72.9376 28.4999 72.9376C46.2257 72.9376 57 57.6787 57 44.1341C57 33.5041 51.6128 24.7602 42.0549 17.7307"/>
	</g>
	<defs>
		<clipPath id="clip_1">
			<rect x="-539" y="-642" width="1441" height="3982" clip-rule="evenodd"/>
		</clipPath>
	</defs>
	<g clip-path="url(#clip_1)">
		<path fill="rgb(255,255,255)" stroke="none" transform="translate(21.932 29)" d="M12.0703 0L7.92966 0L7.92966 2.33124C6.44948 2.71221 5.12945 3.49213 4.09104 4.54953L2.07034 3.38288L-1.90735e-06 6.96881L2.01882 8.13438C1.82319 8.8401 1.71864 9.58369 1.71864 10.3517C1.71864 11.1197 1.82319 11.8633 2.01883 12.569L0 13.7346L2.07034 17.3205L4.09104 16.1539C5.12945 17.2113 6.44948 17.9912 7.92966 18.3722L7.92966 20.7034L12.0703 20.7034L12.0703 18.3722C13.5505 17.9912 14.8705 17.2113 15.909 16.1539L17.9297 17.3205L20 13.7346L17.9812 12.569C18.1768 11.8633 18.2814 11.1197 18.2814 10.3517C18.2814 9.58369 18.1768 8.8401 17.9812 8.13438L20 6.96881L17.9297 3.38288L15.909 4.54953C14.8706 3.49213 13.5505 2.71221 12.0703 2.33124L12.0703 0ZM12.0703 6.76576L12.0703 2.33124C11.4086 2.16092 10.7149 2.07034 10 2.07034C9.28511 2.07034 8.59138 2.16092 7.92966 2.33124L7.92966 6.76576L4.09104 4.54953C3.1224 5.53589 2.3988 6.7637 2.01882 8.13438L5.85932 10.3517L2.01883 12.569C2.3988 13.9397 3.1224 15.1675 4.09104 16.1539L7.92966 13.9376L7.92966 18.3722C8.59138 18.5425 9.28511 18.6331 10 18.6331C10.7149 18.6331 11.4086 18.5425 12.0703 18.3722L12.0703 13.9376L15.909 16.1539C16.8776 15.1675 17.6012 13.9397 17.9812 12.569L14.1407 10.3517L17.9812 8.13438C17.6012 6.7637 16.8776 5.53589 15.909 4.54953L12.0703 6.76576ZM12.0703 8.03695L12.0703 6.76576L10.9704 7.40081C10.6651 7.30047 10.3389 7.24619 10 7.24619C9.66111 7.24619 9.33491 7.30047 9.0296 7.40081L7.92966 6.76576L7.92966 8.03695C7.4447 8.471 7.09695 9.05521 6.95951 9.7165L5.85932 10.3517L6.95951 10.9869C7.09695 11.6482 7.4447 12.2324 7.92966 12.6664L7.92966 13.9376L9.0296 13.3026C9.33491 13.4029 9.66111 13.4572 10 13.4572C10.3389 13.4572 10.6651 13.4029 10.9704 13.3026L12.0703 13.9376L12.0703 12.6664C12.5553 12.2324 12.903 11.6482 13.0405 10.9869L14.1407 10.3517L13.0405 9.7165C12.903 9.05521 12.5553 8.471 12.0703 8.03695ZM12.0703 9.15638L12.0703 8.03695C11.755 7.75472 11.3817 7.53598 10.9704 7.40081L10 7.96107L9.0296 7.40081C8.61833 7.53597 8.24499 7.75472 7.92966 8.03695L7.92966 9.15638L6.95951 9.7165C6.91689 9.92155 6.89449 10.134 6.89449 10.3517C6.89449 10.5694 6.91689 10.7818 6.95951 10.9869L7.92966 11.547L7.92966 12.6664C8.24499 12.9487 8.61833 13.1674 9.0296 13.3026L10 12.7423L10.9704 13.3026C11.3817 13.1674 11.755 12.9487 12.0703 12.6664L12.0703 11.547L13.0405 10.9869C13.0831 10.7818 13.1055 10.5694 13.1055 10.3517C13.1055 10.134 13.0831 9.92155 13.0405 9.7165L12.0703 9.15638ZM12.0703 9.15638L12.0703 11.547L10 12.7423L7.92966 11.547L7.92966 9.15638L10 7.96107L12.0703 9.15638Z" fill-rule="evenodd"/>
	</g>
	<defs>
		<clipPath id="clip_2">
			<rect x="-539" y="-642" width="1441" height="3982" clip-rule="evenodd"/>
		</clipPath>
	</defs>
	<g clip-path="url(#clip_2)">
		<path fill="rgb(255,255,255)" stroke="none" transform="translate(13.9661 47)" d="M8.16218 0L5.36218 0L5.36218 1.57642C4.36125 1.83405 3.46863 2.36144 2.76643 3.07648L1.4 2.28756L0 4.71244L1.36517 5.50061C1.23287 5.97783 1.16218 6.48066 1.16218 7C1.16218 7.51934 1.23287 8.02217 1.36517 8.49938L0 9.28756L1.4 11.7124L2.76643 10.9235C3.46863 11.6386 4.36125 12.166 5.36218 12.4236L5.36218 14L8.16218 14L8.16218 12.4236C9.1631 12.166 10.0557 11.6386 10.7579 10.9235L12.1244 11.7124L13.5244 9.28756L12.1592 8.49938C12.2915 8.02217 12.3622 7.51934 12.3622 7C12.3622 6.48066 12.2915 5.97783 12.1592 5.50062L13.5244 4.71244L12.1244 2.28757L10.7579 3.07648C10.0557 2.36144 9.16311 1.83405 8.16218 1.57642L8.16218 0ZM8.16218 4.57513L8.16218 1.57642C7.71471 1.46125 7.2456 1.4 6.76218 1.4C6.27876 1.4 5.80965 1.46125 5.36218 1.57642L5.36218 4.57513L2.76643 3.07648C2.11142 3.74347 1.62211 4.57374 1.36517 5.50061L3.96218 7L1.36517 8.49938C1.62211 9.42626 2.11142 10.2565 2.76643 10.9235L5.36218 9.42487L5.36218 12.4236C5.80965 12.5387 6.27876 12.6 6.76218 12.6C7.2456 12.6 7.71471 12.5387 8.16218 12.4236L8.16218 9.42487L10.7579 10.9235C11.4129 10.2565 11.9022 9.42626 12.1592 8.49938L9.56218 7L12.1592 5.50062C11.9022 4.57374 11.4129 3.74347 10.7579 3.07648L8.16218 4.57513ZM8.16218 5.43473L8.16218 4.57513L7.41838 5.00456C7.21193 4.93671 6.99134 4.9 6.76218 4.9C6.53302 4.9 6.31243 4.93671 6.10597 5.00456L5.36218 4.57513L5.36218 5.43473C5.03424 5.72824 4.79909 6.1233 4.70614 6.57047L3.96218 7L4.70614 7.42953C4.79909 7.8767 5.03424 8.27176 5.36218 8.56527L5.36218 9.42487L6.10597 8.99544C6.31243 9.06329 6.53302 9.1 6.76218 9.1C6.99134 9.1 7.21193 9.06329 7.41838 8.99544L8.16218 9.42487L8.16218 8.56527C8.49012 8.27176 8.72527 7.8767 8.81821 7.42953L9.56218 7L8.81821 6.57047C8.72527 6.1233 8.49012 5.72824 8.16218 5.43473ZM8.16218 6.19171L8.16218 5.43473C7.94895 5.24388 7.69649 5.09596 7.41838 5.00456L6.76218 5.38342L6.10597 5.00456C5.82787 5.09596 5.57541 5.24388 5.36218 5.43473L5.36218 6.19171L4.70614 6.57047C4.67732 6.70913 4.66218 6.8528 4.66218 7C4.66218 7.1472 4.67732 7.29087 4.70614 7.42953L5.36218 7.80829L5.36218 8.56527C5.57541 8.75612 5.82787 8.90404 6.10597 8.99544L6.76218 8.61658L7.41838 8.99544C7.69649 8.90404 7.94895 8.75612 8.16218 8.56527L8.16218 7.80829L8.81821 7.42953C8.84703 7.29087 8.86218 7.1472 8.86218 7C8.86218 6.8528 8.84703 6.70913 8.81821 6.57047L8.16218 6.19171ZM8.16218 6.19171L8.16218 7.80829L6.76218 8.61658L5.36218 7.80829L5.36218 6.19171L6.76218 5.38342L8.16218 6.19171Z" fill-rule="evenodd"/>
	</g>
</svg>
