<?xml version="1.0" encoding="utf-8" ?>
<svg xmlns="http://www.w3.org/2000/svg" xmlns:xlink="http://www.w3.org/1999/xlink" width="57" height="73">
	<defs>
		<clipPath id="clip_0">
			<rect x="-162" y="-790" width="1441" height="3982" clip-rule="evenodd"/>
		</clipPath>
	</defs>
	<g clip-path="url(#clip_0)">
		<path fill="rgb(41,170,225)" stroke="none" d="M42.0549 17.7307C34.9298 12.4157 30.7592 4.35751 29.0213 0.757046C28.8002 0.538923 28.7206 0.338497 28.7304 0.166057C28.4555 -0.0421889 28.1964 -0.0271672 27.9864 0.0623454C27.9835 0.0654321 27.9816 0.0685187 27.9787 0.0713996C26.7623 3.67187 22.0702 11.9015 14.9451 17.7307C5.90847 24.7602 0 33.5041 0 44.1341C0 57.6787 10.6005 72.9376 28.4999 72.9376C46.2257 72.9376 57 57.6787 57 44.1341C57 33.5041 51.6128 24.7602 42.0549 17.7307"/>
	</g>
	<defs>
		<clipPath id="clip_1">
			<rect x="-162" y="-790" width="1441" height="3982" clip-rule="evenodd"/>
		</clipPath>
	</defs>
	<g clip-path="url(#clip_1)">
		<path fill="rgb(255,255,255)" stroke="none" transform="translate(20.573 35.0236)" d="M0 0.849L0.796 2.953C0.796 2.953 0.982 2.892 1.262 2.799C1.537 2.694 1.913 2.583 2.3 2.506C2.679 2.402 3.068 2.34 3.362 2.308C3.654 2.267 3.849 2.239 3.849 2.239L3.623 0C3.623 0 3.392 0.032 3.046 0.08C2.698 0.119 2.239 0.195 1.787 0.316C1.329 0.409 0.882 0.541 0.553 0.663C0.221 0.775 0 0.849 0 0.849"/>
	</g>
	<defs>
		<clipPath id="clip_2">
			<rect x="-162" y="-790" width="1441" height="3982" clip-rule="evenodd"/>
		</clipPath>
	</defs>
	<g clip-path="url(#clip_2)">
		<path fill="rgb(255,255,255)" stroke="none" transform="translate(15.573 37.0236)" d="M0 2.46187L1.712 3.92179C1.719 3.92879 1.817 3.7588 2.031 3.56081C2.245 3.36382 2.491 3.06184 2.799 2.82185C3.378 2.30188 4.04 1.8849 4.04 1.8849L2.812 0C2.812 0 2.019 0.499973 1.318 1.12794C0.951 1.41992 0.645 1.78091 0.389 2.02289C0.262 2.14489 0.165 2.25488 0.103 2.33688C0.037 2.41687 0 2.46187 0 2.46187"/>
	</g>
	<defs>
		<clipPath id="clip_3">
			<rect x="-162" y="-790" width="1441" height="3982" clip-rule="evenodd"/>
		</clipPath>
	</defs>
	<g clip-path="url(#clip_3)">
		<path fill="rgb(255,255,255)" stroke="none" transform="translate(12.573 42.0236)" d="M0 3.586L2.22158 3.919C2.22158 3.919 2.31157 3.155 2.55352 2.424C2.6415 2.049 2.82747 1.708 2.91945 1.436C3.01443 1.163 3.13441 1.009 3.12441 1.004L1.11179 0C1.11179 0 1.0848 0.052 1.03681 0.143C0.984815 0.233 0.920827 0.366 0.859839 0.532C0.740861 0.865 0.522902 1.288 0.408923 1.747C0.111979 2.646 0 3.586 0 3.586"/>
	</g>
	<defs>
		<clipPath id="clip_4">
			<rect x="-162" y="-790" width="1441" height="3982" clip-rule="evenodd"/>
		</clipPath>
	</defs>
	<g clip-path="url(#clip_4)">
		<path fill="rgb(255,255,255)" stroke="none" transform="translate(35.573 42.0236)" d="M2.017 0L0 0.998C0 0.998 0.108 1.16 0.202 1.43C0.292 1.701 0.483 2.04 0.563 2.413C0.663 2.78 0.782 3.143 0.81 3.428C0.857 3.709 0.889 3.896 0.889 3.896L3.119 3.601C3.119 3.601 3.08 3.368 3.022 3.017C2.982 2.663 2.842 2.21 2.714 1.754C2.607 1.291 2.384 0.869 2.266 0.535C2.144 0.201 2.017 0 2.017 0"/>
	</g>
	<defs>
		<clipPath id="clip_5">
			<rect x="-162" y="-790" width="1441" height="3982" clip-rule="evenodd"/>
		</clipPath>
	</defs>
	<g clip-path="url(#clip_5)">
		<path fill="rgb(255,255,255)" stroke="none" transform="translate(32.573 37.0236)" d="M1.23 0L0 1.884C0 1.884 0.661 2.302 1.241 2.822C1.546 3.064 1.794 3.365 2.007 3.562C2.114 3.661 2.191 3.754 2.242 3.821C2.295 3.887 2.326 3.924 2.326 3.924L4.039 2.466C4.039 2.466 4.002 2.42 3.937 2.341C3.873 2.259 3.779 2.147 3.651 2.025C3.396 1.784 3.089 1.423 2.723 1.13C2.023 0.502 1.23 0 1.23 0"/>
	</g>
	<defs>
		<clipPath id="clip_6">
			<rect x="-162" y="-790" width="1441" height="3982" clip-rule="evenodd"/>
		</clipPath>
	</defs>
	<g clip-path="url(#clip_6)">
		<path fill="rgb(255,255,255)" stroke="none" transform="translate(26.573 35.0236)" d="M0.232 0L0 2.238C0 2.238 0.195 2.266 0.487 2.307C0.782 2.336 1.169 2.405 1.549 2.508C1.936 2.584 2.31 2.702 2.586 2.804C2.866 2.896 3.052 2.958 3.052 2.958L3.854 0.856C3.854 0.856 3.632 0.781 3.301 0.67C2.971 0.55 2.526 0.412 2.068 0.319C1.616 0.199 1.157 0.116 0.809 0.08C0.463 0.032 0.232 0 0.232 0"/>
	</g>
	<defs>
		<clipPath id="clip_7">
			<rect x="-162" y="-790" width="1441" height="3982" clip-rule="evenodd"/>
		</clipPath>
	</defs>
	<g clip-path="url(#clip_7)">
		<path fill="rgb(255,255,255)" stroke="none" transform="matrix(-0.809017 0.587785 -0.587785 -0.809017 46.572 47.4191)" d="M4.76663 0L9.53327 9.53327L0 9.53327L4.76663 0Z"/>
	</g>
</svg>
