<?xml version="1.0" encoding="utf-8" ?>
<svg xmlns="http://www.w3.org/2000/svg" xmlns:xlink="http://www.w3.org/1999/xlink" width="57" height="73">
	<defs>
		<clipPath id="clip_0">
			<rect x="-164" y="-940" width="1441" height="3982" clip-rule="evenodd"/>
		</clipPath>
	</defs>
	<g clip-path="url(#clip_0)">
		<path fill="rgb(41,170,225)" stroke="none" d="M42.0549 17.7307C34.9298 12.4157 30.7592 4.35751 29.0213 0.757046C28.8002 0.538923 28.7206 0.338497 28.7304 0.166057C28.4555 -0.0421889 28.1964 -0.0271672 27.9864 0.0623454C27.9835 0.0654321 27.9816 0.0685187 27.9787 0.0713996C26.7623 3.67187 22.0702 11.9015 14.9451 17.7307C5.90847 24.7602 0 33.5041 0 44.1341C0 57.6787 10.6005 72.9376 28.4999 72.9376C46.2257 72.9376 57 57.6787 57 44.1341C57 33.5041 51.6128 24.7602 42.0549 17.7307"/>
	</g>
	<defs>
		<clipPath id="clip_1">
			<path d="M48.6039 37.9734L34.4943 23.8638L12.8175 45.5405L26.9272 59.6502L48.6039 37.9734Z" clip-rule="evenodd"/>
		</clipPath>
	</defs>
	<g clip-path="url(#clip_1)">
		<path fill="rgb(255,255,255)" stroke="none" transform="matrix(0.707107 0.707107 -0.707107 0.707107 34.4943 23.8638)" d="M15.5988 17.9972L19.4654 21.8764C19.8087 22.2205 19.945 22.7213 19.8245 23.1928L18.0488 30.1379C17.9709 30.4423 17.6969 30.6556 17.3834 30.6556L16.1502 30.6556C15.914 30.6556 15.6942 30.5336 15.5686 30.3328L13.2257 26.5866C13.1 26.3858 12.8803 26.2639 12.6441 26.2639L7.22353 26.2639C6.98732 26.2639 6.76758 26.3858 6.64192 26.5866L4.29902 30.3328C4.17336 30.5336 3.95363 30.6556 3.71742 30.6556L2.48417 30.6556C2.17036 30.6556 1.89673 30.4423 1.81879 30.1379L0.043078 23.1928C-0.0774317 22.7213 0.0588712 22.2205 0.402204 21.8764L4.26881 17.9972C2.29465 4.21944 9.93379 0 9.93379 0C9.93379 0 17.5729 4.21944 15.5988 17.9972ZM7.8074 8.49607C7.8074 9.69301 8.77878 10.6633 9.97706 10.6633C11.1753 10.6633 12.1467 9.69301 12.1467 8.49607C12.1467 7.29947 11.1753 6.32917 9.97706 6.32917C8.77878 6.32917 7.8074 7.29947 7.8074 8.49607Z" fill-rule="evenodd"/>
	</g>
	<defs>
		<clipPath id="clip_2">
			<rect x="-164" y="-940" width="1441" height="3982" clip-rule="evenodd"/>
		</clipPath>
	</defs>
	<g clip-path="url(#clip_2)">
		<path fill="rgb(255,255,255)" stroke="none" transform="matrix(0.707107 0.707107 -0.707107 0.707107 20.5754 49.0962)" d="M0 0L2 11L4 0L2 0L0 0Z"/>
	</g>
</svg>
