<svg id="Layer_1" data-name="Layer 1" xmlns="http://www.w3.org/2000/svg" viewBox="0 0 299.88 31.29"><defs><style>.cls-1{fill:#2da9e1;}.cls-2{fill:#676767;}.cls-3{fill:#666766;stroke:#231f20;stroke-miterlimit:10;stroke-width:0.5px;}</style></defs><title>docs-logo</title><path class="cls-1" d="M279.29,385.59v0a0.54,0.54,0,0,0,.43-0.5,0.57,0.57,0,0,0-.2-0.45,1.17,1.17,0,0,0-.72-0.17,4.14,4.14,0,0,0-.81.08v2.08h0.49v-0.83h0.23a0.37,0.37,0,0,1,.43.33,1.71,1.71,0,0,0,.17.5h0.52a1.42,1.42,0,0,1-.15-0.51,0.6,0.6,0,0,0-.38-0.51m-0.57-.15h-0.23v-0.6a1.11,1.11,0,0,1,.27,0c0.31,0,.45.13,0.45,0.32s-0.22.3-.48,0.3m-93,1.55a7.43,7.43,0,0,1,5.06,2,15.29,15.29,0,0,1,2.11-3.78,11.73,11.73,0,1,0,0,18.51,15.25,15.25,0,0,1-2.11-3.78,7.47,7.47,0,1,1-5.06-13m-24.22-8.53a1.87,1.87,0,0,0-1.7,1.1l-11.61,25.73h4.63l1.68-3.68h14l1.66,3.68h4.62l-11.61-25.73a1.87,1.87,0,0,0-1.7-1.1m-5.16,19L161.47,386l5.16,11.44H156.31Zm60.67-3a11.65,11.65,0,0,0-11.24-11.72h-0.07c-0.21,0-.27.09-0.2,0.24l0,0.07a12.63,12.63,0,0,0,3.33,4.47c2.4,1.89,3.86,4.13,3.86,6.94a7.36,7.36,0,1,1-14.72,0c0-2.81,1.46-5,3.85-6.94a12.32,12.32,0,0,0,3.35-4.51c0.08-.17,0-0.28-0.16-0.28h0a11.75,11.75,0,0,0-11.48,11.73,11.61,11.61,0,0,0,11.59,11.32,12.33,12.33,0,0,0,7.92-2.62l2.22,2.11h6.43l-5.89-5.57a11.67,11.67,0,0,0,1.19-5.23m54-7.88-0.84-.87a9.36,9.36,0,0,0-6.86-3.16,9.56,9.56,0,0,0-7.39,3.29,12,12,0,0,0-3,8.3,12.41,12.41,0,0,0,3,8.47,9.73,9.73,0,0,0,14.27.35l0.82-.77v3h4.37V383.17h-4.37v3.39Zm-1.61,13.35a6.61,6.61,0,0,1-5.14,2.19,6.3,6.3,0,0,1-5-2.28,8.52,8.52,0,0,1-1.89-5.71,8.19,8.19,0,0,1,1.94-5.53,6.38,6.38,0,0,1,5-2.24,6.52,6.52,0,0,1,5.1,2.22,9.24,9.24,0,0,1,0,11.33m9.49-16.48h0a2.1,2.1,0,1,0,0,4.2,2.1,2.1,0,1,0,0-4.2m0,3.76a1.67,1.67,0,0,1,0-3.34h0a1.61,1.61,0,0,1,1.61,1.67,1.6,1.6,0,0,1-1.59,1.67m-42.05,7.07c0,4.57-2.32,7.41-6.07,7.41s-6.08-2.84-6.08-7.41V383.19h-4.44v11.08c0,6.75,4.41,11.65,10.48,11.65s10.54-4.9,10.54-11.65V383.17h-4.45v11.09Zm8.54,11h4.42V383.17h-4.42v22.12Z" transform="translate(-148.16 -378.46)"/><path class="cls-2" d="M322.25,392.42l-3.53,12.91h-2.16l-4.56-16h2.21l3.55,13.35,3.67-13.35h1.66l3.67,13.35,3.53-13.35h2.21l-4.56,16h-2.16Z" transform="translate(-148.16 -378.46)"/><path class="cls-2" d="M339,393.45c3.5,0,5.57,2.74,5.57,6.22v0.46h-9.38a4.09,4.09,0,0,0,4.18,4,5.07,5.07,0,0,0,3.58-1.46l0.86,1.18a6.3,6.3,0,0,1-4.61,1.78A6.09,6.09,0,0,1,339,393.45Zm-3.82,5.35h7.61a3.76,3.76,0,0,0-3.82-3.86A3.87,3.87,0,0,0,335.16,398.8Z" transform="translate(-148.16 -378.46)"/><path class="cls-2" d="M359.23,393.45a5,5,0,0,1,4.25,2l-1.2,1.1a3.44,3.44,0,0,0-3-1.51c-2.47,0-4,1.9-4,4.46s1.54,4.49,4,4.49a3.5,3.5,0,0,0,3-1.51l1.2,1.1a5,5,0,0,1-4.25,2c-3.46,0-5.78-2.64-5.78-6.1A5.73,5.73,0,0,1,359.23,393.45Z" transform="translate(-148.16 -378.46)"/><path class="cls-2" d="M373.49,404a5,5,0,0,1-3.84,1.61,3.86,3.86,0,0,1-4.06-3.84,3.8,3.8,0,0,1,4.06-3.82,4.85,4.85,0,0,1,3.84,1.58v-2.09c0-1.56-1.25-2.45-2.93-2.45a4.61,4.61,0,0,0-3.55,1.61l-0.84-1.25a6.07,6.07,0,0,1,4.63-1.92c2.45,0,4.49,1.1,4.49,3.91v8h-1.8V404Zm0-3.31a3.88,3.88,0,0,0-3.19-1.44,2.55,2.55,0,1,0,0,5.06,3.88,3.88,0,0,0,3.19-1.44V400.7Z" transform="translate(-148.16 -378.46)"/><path class="cls-2" d="M387,397.75c0-2-1-2.69-2.59-2.69a4.48,4.48,0,0,0-3.43,1.8v8.47h-1.8V393.74h1.8v1.68a5.75,5.75,0,0,1,4.13-2c2.42,0,3.7,1.22,3.7,3.74v8.14H387v-7.58Z" transform="translate(-148.16 -378.46)"/><path class="cls-2" d="M406.87,397.7c0-2-1.06-2.64-2.62-2.64a4.56,4.56,0,0,0-3.43,1.8v8.47H399v-16h1.8v6.1a5.76,5.76,0,0,1,4.15-2c2.42,0,3.7,1.18,3.7,3.7v8.19h-1.8V397.7Z" transform="translate(-148.16 -378.46)"/><path class="cls-2" d="M417.55,393.45c3.5,0,5.57,2.74,5.57,6.22v0.46h-9.38a4.08,4.08,0,0,0,4.18,4,5.07,5.07,0,0,0,3.58-1.46l0.86,1.18a6.29,6.29,0,0,1-4.61,1.78A6.09,6.09,0,0,1,417.55,393.45Zm-3.82,5.35h7.61a3.76,3.76,0,0,0-3.82-3.86A3.87,3.87,0,0,0,413.74,398.8Z" transform="translate(-148.16 -378.46)"/><path class="cls-2" d="M426.26,389.32h1.8v16h-1.8v-16Z" transform="translate(-148.16 -378.46)"/><path class="cls-2" d="M431.9,409.75v-16h1.8v1.73a4.85,4.85,0,0,1,3.91-2c3,0,5.16,2.3,5.16,6.07s-2.11,6.1-5.16,6.1a4.75,4.75,0,0,1-3.91-2v6.17h-1.8Zm5.26-14.69a4.29,4.29,0,0,0-3.46,1.85v5.23a4.31,4.31,0,0,0,3.46,1.87c2.33,0,3.72-1.92,3.72-4.49S439.49,395.06,437.16,395.06Z" transform="translate(-148.16 -378.46)"/><path class="cls-2" d="M446.71,402.93a1.32,1.32,0,1,1-1.32,1.32A1.33,1.33,0,0,1,446.71,402.93Z" transform="translate(-148.16 -378.46)"/><line class="cls-3" x1="147.18" y1="4.98" x2="147.18" y2="26.83"/></svg>