<?xml version="1.0" encoding="utf-8" ?>
<svg xmlns="http://www.w3.org/2000/svg" xmlns:xlink="http://www.w3.org/1999/xlink" width="59" height="67">
	<defs>
		<clipPath id="clip_0">
			<rect x="-691" y="-3012" width="1441" height="3982" clip-rule="evenodd"/>
		</clipPath>
	</defs>
	<g clip-path="url(#clip_0)">
		<path fill="rgb(198,214,229)" stroke="none" transform="translate(2.08972 4.19299)" d="M0 45.192L0 21.678L27.309 0.181C27.459 0.062 27.641 0 27.833 0C28.025 0 28.206 0.062 28.357 0.181L55.666 21.678L55.666 45.192L0 45.192Z"/>
	</g>
	<defs>
		<clipPath id="clip_1">
			<rect x="-691" y="-3012" width="1441" height="3982" clip-rule="evenodd"/>
		</clipPath>
	</defs>
	<g clip-path="url(#clip_1)">
		<path fill="rgb(60,90,142)" stroke="none" transform="translate(1.00037 3.19299)" d="M27.78 0.396C28.115 0.132 28.518 0 28.922 0C29.326 0 29.729 0.132 30.064 0.396L57.844 22.264L57.755 22.334L57.755 47.193L0.089 47.193L0.089 22.334L0 22.264L27.78 0.396ZM55.755 23.164L28.922 2.042L2.089 23.164L2.089 45.193L55.755 45.193L55.755 23.164Z" fill-rule="evenodd"/>
	</g>
	<defs>
		<clipPath id="clip_2">
			<rect x="-691" y="-3012" width="1441" height="3982" clip-rule="evenodd"/>
		</clipPath>
	</defs>
	<g clip-path="url(#clip_2)">
		<path fill="rgb(255,255,255)" stroke="none" transform="translate(11.0002 2)" d="M0 55.552L0 3.366C0 1.51 1.51 0 3.366 0L36.894 0L36.894 55.552L0 55.552Z"/>
	</g>
	<defs>
		<clipPath id="clip_3">
			<rect x="-691" y="-3012" width="1441" height="3982" clip-rule="evenodd"/>
		</clipPath>
	</defs>
	<g clip-path="url(#clip_3)">
		<path fill="rgb(60,90,142)" stroke="none" transform="translate(10.0009 1)" d="M4.366 0L38.893 0L38.893 57.552L0 57.552L0 4.366C0 1.955 1.954 0 4.366 0ZM36.893 55.552L36.893 2L4.366 2C3.061 2 2 3.061 2 4.366L2 55.552L36.893 55.552Z" fill-rule="evenodd"/>
	</g>
	<defs>
		<clipPath id="clip_4">
			<rect x="-691" y="-3012" width="1441" height="3982" clip-rule="evenodd"/>
		</clipPath>
	</defs>
	<g clip-path="url(#clip_4)">
		<path fill="rgb(255,255,255)" stroke="none" transform="translate(15.4919 2.00012)" d="M2.561 4.463L2.561 3.437C2.561 1.828 1.498 0.449 0 0L33.094 0C34.95 0 36.46 1.51 36.46 3.366L36.46 4.463L2.561 4.463Z"/>
	</g>
	<defs>
		<clipPath id="clip_5">
			<rect x="-691" y="-3012" width="1441" height="3982" clip-rule="evenodd"/>
		</clipPath>
	</defs>
	<g clip-path="url(#clip_5)">
		<path fill="rgb(60,90,142)" stroke="none" transform="translate(13.7321 1)" d="M1.231 0L34.854 0C37.265 0 39.22 1.955 39.22 4.366L39.22 6.463L3.293 6.463C3.303 6.369 3.321 6.278 3.321 6.181L3.321 4.437C3.321 3.097 2.304 2.006 1.002 1.862C0.689 1.676 0.357 1.517 0 1.413L1.231 0ZM37.22 4.366C37.22 3.061 36.159 2 34.854 2L4.621 2C5.066 2.708 5.321 3.545 5.321 4.437L5.321 4.463L37.22 4.463L37.22 4.366Z" fill-rule="evenodd"/>
	</g>
	<defs>
		<clipPath id="clip_6">
			<rect x="-691" y="-3012" width="1441" height="3982" clip-rule="evenodd"/>
		</clipPath>
	</defs>
	<g clip-path="url(#clip_6)">
		<path fill="rgb(255,255,255)" stroke="none" transform="translate(17.7062 16.2898)" d="M0 0L15.636 0"/>
	</g>
	<defs>
		<clipPath id="clip_7">
			<rect x="-691" y="-3012" width="1441" height="3982" clip-rule="evenodd"/>
		</clipPath>
	</defs>
	<g clip-path="url(#clip_7)">
		<path fill="none" stroke="rgb(60,90,142)" stroke-width="2" stroke-miterlimit="4" transform="translate(17.7062 16.2898)" d="M0 0L15.636 0"/>
	</g>
	<defs>
		<clipPath id="clip_8">
			<rect x="-691" y="-3012" width="1441" height="3982" clip-rule="evenodd"/>
		</clipPath>
	</defs>
	<g clip-path="url(#clip_8)">
		<path fill="rgb(255,255,255)" stroke="none" transform="translate(17.7062 21.4192)" d="M0 0L23.8 0"/>
	</g>
	<defs>
		<clipPath id="clip_9">
			<rect x="-691" y="-3012" width="1441" height="3982" clip-rule="evenodd"/>
		</clipPath>
	</defs>
	<g clip-path="url(#clip_9)">
		<path fill="none" stroke="rgb(60,90,142)" stroke-width="2" stroke-miterlimit="4" transform="translate(17.7062 21.4192)" d="M0 0L23.8 0"/>
	</g>
	<defs>
		<clipPath id="clip_10">
			<rect x="-691" y="-3012" width="1441" height="3982" clip-rule="evenodd"/>
		</clipPath>
	</defs>
	<g clip-path="url(#clip_10)">
		<path fill="rgb(255,255,255)" stroke="none" transform="translate(17.7062 27.5745)" d="M0 0L23.8 0"/>
	</g>
	<defs>
		<clipPath id="clip_11">
			<rect x="-691" y="-3012" width="1441" height="3982" clip-rule="evenodd"/>
		</clipPath>
	</defs>
	<g clip-path="url(#clip_11)">
		<path fill="none" stroke="rgb(60,90,142)" stroke-width="2" stroke-miterlimit="4" transform="translate(17.7062 27.5745)" d="M0 0L23.8 0"/>
	</g>
	<defs>
		<clipPath id="clip_12">
			<rect x="-691" y="-3012" width="1441" height="3982" clip-rule="evenodd"/>
		</clipPath>
	</defs>
	<g clip-path="url(#clip_12)">
		<path fill="rgb(236,243,252)" stroke="none" transform="translate(1.99951 27.5262)" d="M0.847 36.4699C0.38 36.4699 1.06581e-14 36.0899 1.06581e-14 35.6229L0 0L27.923 21.981L55.846 0L55.846 35.6229C55.846 36.0899 55.466 36.4699 54.999 36.4699L0.847 36.4699Z"/>
	</g>
	<defs>
		<clipPath id="clip_13">
			<rect x="-691" y="-3012" width="1441" height="3982" clip-rule="evenodd"/>
		</clipPath>
	</defs>
	<g clip-path="url(#clip_13)">
		<path fill="rgb(60,90,142)" stroke="none" transform="translate(0.999756 25.4672)" d="M28.923 22.767L57.845 0L57.845 38.7106C57.845 39.7306 57.018 40.5576 55.998 40.5576L1.847 40.5576C0.827 40.5576 0 39.7306 0 38.7106L0 0L28.923 22.767ZM2 38.5576L55.845 38.5576L55.845 4.12L30.16 24.339L28.923 25.312L27.685 24.339L2 4.12L2 38.5576Z" fill-rule="evenodd"/>
	</g>
	<defs>
		<clipPath id="clip_14">
			<rect x="-691" y="-3012" width="1441" height="3982" clip-rule="evenodd"/>
		</clipPath>
	</defs>
	<g clip-path="url(#clip_14)">
		<path fill="rgb(235,243,251)" stroke="none" transform="translate(2.84644 43.2312)" d="M-0.000207394 21.7516C-0.0421132 21.7516 26.4922 0.181 26.4922 0.181C26.6429 0.062 26.8235 0 27.0151 0C27.2066 0 27.3872 0.062 27.5379 0.181L54.1521 21.7426C54.1122 21.7486 -0.000207394 21.7516 -0.000207394 21.7516Z"/>
	</g>
	<defs>
		<clipPath id="clip_15">
			<rect x="-691" y="-3012" width="1441" height="3982" clip-rule="evenodd"/>
		</clipPath>
	</defs>
	<g clip-path="url(#clip_15)">
		<path fill="rgb(60,90,142)" stroke="none" transform="translate(1.17944 42.231)" d="M0 22.6866L27.601 0.396C27.936 0.132 28.339 0 28.743 0C29.147 0 29.55 0.132 29.885 0.396L57.486 22.6866C57.191 23.3146 56.558 23.7516 55.819 23.7516L1.667 23.7516C0.928 23.7516 0.295 23.3146 0 22.6866ZM28.743 2.042L4.422 21.7516L53.064 21.7516L28.743 2.042Z" fill-rule="evenodd"/>
	</g>
</svg>
