<?xml version="1.0" encoding="utf-8" ?>
<svg xmlns="http://www.w3.org/2000/svg" xmlns:xlink="http://www.w3.org/1999/xlink" width="30" height="30">
	<defs>
		<clipPath id="clip_0">
			<rect x="-823.52002" y="-630.91992" width="2853.1799" height="7884.3599" clip-rule="evenodd"/>
		</clipPath>
	</defs>
	<g clip-path="url(#clip_0)">
		<path fill="rgb(68,68,68)" stroke="none" transform="matrix(1.98 0 0 1.98 0.159912 0.699951)" d="M11.4575 10.7041C12.4196 9.57073 13 8.10314 13 6.5C13 2.91015 10.0899 0 6.5 0C2.91015 0 0 2.91015 0 6.5C0 10.0899 2.91015 13 6.5 13C8.12675 13 9.61393 12.4024 10.754 11.4148L13.9337 14.5945L14.6408 13.8874L11.4575 10.7041ZM11.4575 10.7041L11.3981 10.6447L10.691 11.3518L10.754 11.4148C11.0062 11.1962 11.2415 10.9586 11.4575 10.7041ZM6.5 12C9.53757 12 12 9.53757 12 6.5C12 3.46243 9.53757 1 6.5 1C3.46243 1 1 3.46243 1 6.5C1 9.53757 3.46243 12 6.5 12Z" fill-rule="evenodd"/>
	</g>
</svg>
